<?xml version="1.0" encoding="iso-8859-1"?>
<!-- Generator: Adobe Illustrator 19.0.0, SVG Export Plug-In . SVG Version: 6.00 Build 0)  -->
<svg version="1.1" id="Layer_1" xmlns="http://www.w3.org/2000/svg" xmlns:xlink="http://www.w3.org/1999/xlink" x="0px" y="0px"
	 viewBox="0 0 496.2 496.2" style="enable-background:new 0 0 496.2 496.2;" xml:space="preserve">
<path style="fill:#E04F5F;" d="M496.2,248.1C496.2,111.1,385.1,0,248.1,0S0,111.1,0,248.1s111.1,248.1,248.1,248.1
	S496.2,385.1,496.2,248.1z"/>
<path style="fill:#CCCACA;" d="M357.1,411.2c0,7.7-6.2,13.9-13.9,13.9H153c-7.7,0-13.9-6.2-13.9-13.9V85c0-7.7,6.2-13.9,13.9-13.9
	h190.3c7.7,0,13.9,6.2,13.9,13.9v326.2H357.1z"/>
<rect x="245.9" y="71.1" style="fill:#B2B2B2;" width="4.5" height="354.1"/>
<g>
	<path style="fill:#A5A4A4;" d="M265.9,129.2h-5c-1,0-1.8,1.1-1.8,2.5V262c0,1.4,0.8,2.5,1.8,2.5h5c1,0,1.8-1.1,1.8-2.5V131.7
		C267.6,130.3,266.9,129.2,265.9,129.2z"/>
	<path style="fill:#A5A4A4;" d="M234.9,129.2h-5c-1,0-1.8,1.1-1.8,2.5V262c0,1.4,0.8,2.5,1.8,2.5h5c1,0,1.8-1.1,1.8-2.5V131.7
		C236.6,130.3,235.9,129.2,234.9,129.2z"/>
</g>
<rect x="155.4" y="169.4" style="fill:#BCBCBC;" width="62" height="62.7"/>
<polygon style="fill:#B2B1B1;" points="197,182.6 175.8,182.6 155.4,169.4 217.4,169.4 "/>
<polygon style="fill:#A5A4A4;" points="197,223.8 175.8,223.8 155.4,232.1 217.4,232.1 "/>
<rect x="175.7" y="182.6" style="fill:#A09F9F;" width="21.3" height="41.2"/>
<path style="fill:#1BAAAA;" d="M192.8,202.3c0,0.6-0.5,1-1,1h-10.3c-0.6,0-1-0.5-1-1v-19.7h12.4v19.7H192.8z"/>
<polygon style="fill:#BCBCBC;" points="189.4,186.8 183.5,186.8 178.2,175.7 194.7,175.7 "/>
<g>
	<ellipse style="fill:#C2C6C6;" cx="186.6" cy="224.8" rx="9.3" ry="4.6"/>
	<rect x="177.3" y="204.4" style="fill:#C2C6C6;" width="18.6" height="20.5"/>
</g>
<rect x="178.1" y="203.9" style="fill:#EAEADA;" width="17" height="18.9"/>
<rect x="178.1" y="216.6" style="fill:#D6991E;" width="17" height="6.2"/>
<rect x="178.1" y="217" style="fill:#B28012;" width="8.5" height="5.7"/>
<ellipse style="fill:#BF8716;" cx="186.6" cy="216.6" rx="8.5" ry="1.5"/>
<path style="fill:#EAA028;" d="M195.1,216.6c0,0.9-3.8,1.5-8.5,1.5V215C191.3,215,195.1,215.7,195.1,216.6z"/>
<ellipse style="fill:#C2C6C6;" cx="186.6" cy="204.4" rx="9.3" ry="2.7"/>
<ellipse style="fill:#EAEADA;" cx="186.6" cy="204.3" rx="8.5" ry="1.9"/>
<path style="fill:#E2E2D5;" d="M186.6,206.2c-4.7,0-8.5-0.9-8.5-1.9s3.8-1.9,8.5-1.9V206.2z"/>
<ellipse style="fill:#D6991E;" cx="186.6" cy="222.4" rx="8.5" ry="4.2"/>
<path style="fill:#B28012;" d="M186.6,226.7c-4.7,0-8.5-1.9-8.5-4.2s3.8-4.2,8.5-4.2V226.7z"/>
<path style="fill:#AFBFBC;" d="M186.5,192.8c0.3,0.3,0.3,0.9,0,1.2l-2.8,2.8c-0.3,0.3-0.9,0.3-1.2,0l-2.8-2.8
	c-0.3-0.3-0.3-0.9,0-1.2l2.8-2.8c0.3-0.3,0.9-0.3,1.2,0L186.5,192.8z"/>
<path style="fill:#CADBD8;" d="M183.8,196.8c-0.3,0.3-0.9,0.3-1.2,0l-2.8-2.8c-0.3-0.3-0.3-0.9,0-1.2l2.8-2.8
	C182.9,189.7,183.8,196.8,183.8,196.8z"/>
<path style="fill:#AFBFBC;" d="M192.7,199.7c0.3,0.3,0.3,0.9,0,1.2l-2.8,2.8c-0.3,0.3-0.9,0.3-1.2,0l-2.8-2.8
	c-0.3-0.3-0.3-0.9,0-1.2l2.8-2.8c0.3-0.3,0.9-0.3,1.2,0L192.7,199.7z"/>
<path style="fill:#CADBD8;" d="M190,203.7c-0.3,0.3-0.9,0.3-1.2,0l-2.8-2.8c-0.3-0.3-0.3-0.9,0-1.2l2.8-2.8
	C189.1,196.6,190,203.7,190,203.7z"/>
<rect x="290.201" y="151.287" transform="matrix(-0.9376 -0.3478 0.3478 -0.9376 546.0602 426.9913)" style="fill:#DBF0F5;" width="42.301" height="26.401"/>
<path style="fill:#6CC077;" d="M328.2,178.7l-3.2-7.8c0,0-0.7-2.7-2.2-3.2c-1.3-0.4-3.5,0.8-3.9,1l-1.1-2.6c0,0-0.9-3.2-2.6-3.7
	s-4.7,1.3-4.7,1.3l-0.8,0.4l-2-4.9c0,0-1.1-3.9-3.2-4.6s-5.7,1.6-5.7,1.6l-8,4.1l-3.3,9l38.8,14.4L328.2,178.7z"/>
<g>
	<path style="fill:#67B8CB;" d="M316.7,158.4l0.1-0.1c0.2-0.6-0.2-1.3-0.9-1.6c-0.1,0-0.2,0-0.3-0.1c-0.1-0.4-0.4-0.8-0.9-1
		c-0.6-0.2-1.3,0-1.6,0.4c-0.7-0.1-1.3,0.2-1.5,0.7s0.1,1.1,0.6,1.4c0,0.5,0.4,1.1,1,1.3s1.2,0.1,1.5-0.2c0.1,0.1,0.3,0.2,0.4,0.3
		c0.7,0.2,1.4,0,1.6-0.5C316.8,158.8,316.8,158.6,316.7,158.4z"/>
	<path style="fill:#67B8CB;" d="M322.5,162.1C322.5,162,322.5,162,322.5,162.1c0.2-0.5,0.7-0.7,1.3-0.5c0.1,0,0.1,0.1,0.2,0.1
		c0.2-0.2,0.6-0.2,0.9-0.1c0.4,0.2,0.7,0.6,0.7,0.9c0.4,0.3,0.6,0.7,0.5,1.1c-0.1,0.4-0.5,0.6-1,0.5c-0.3,0.3-0.7,0.4-1.2,0.2
		c-0.4-0.2-0.7-0.5-0.7-0.8c-0.1,0-0.2,0-0.4-0.1c-0.5-0.2-0.7-0.6-0.6-1C322.2,162.3,322.3,162.1,322.5,162.1z"/>
</g>
<circle style="fill:#514F4F;" cx="306.5" cy="149.3" r="4"/>
<circle style="fill:#C96363;" cx="306.5" cy="149.1" r="3.6"/>
<path style="fill:#D17878;" d="M306.8,146.5c0.6,0.6-2.4,3.6-3,3s-0.5-1.8,0.4-2.6S306.2,145.9,306.8,146.5z"/>
<rect x="289.58" y="219.583" transform="matrix(0.4171 0.9089 -0.9089 0.4171 390.6476 -145.0216)" style="fill:#FFFFFF;" width="37.601" height="24.901"/>
<rect x="290.371" y="220.341" transform="matrix(0.4171 0.9089 -0.9089 0.4171 390.6626 -145.1285)" style="fill:#B5DFE5;" width="36.201" height="23.301"/>
<path style="fill:#CEA272;" d="M312.9,237.1c0.4,1.3-0.5,2.6-1.9,2.9l0,0c-1.4,0.3-2.9-0.5-3.2-1.7l-1.5-5.4
	c-0.4-1.3,0.5-2.6,1.9-2.9l0,0c1.4-0.3,2.9,0.5,3.2,1.7L312.9,237.1z"/>
<path style="fill:#D6A972;" d="M312.2,229.4c1,2-0.1,4.4-2.4,5.2l0,0c-2.3,0.9-4.8-0.1-5.8-2.1l-4-8.5c-1-2,0.1-4.4,2.4-5.2l0,0
	c2.3-0.9,4.9,0.1,5.8,2.1L312.2,229.4z"/>
<path style="fill:#8B401E;" d="M299.7,224.4c0,0,2.6,5.7,2.6,4.2c-0.3-8.2,7.6-7.7,7.5-8.7l-1.8,0.4c0,0,1.6-1.1,1.3-2
	C309.4,218.4,297.7,216.5,299.7,224.4z"/>
<g>
	<polygon style="fill:#C4C3B7;" points="312.3,235.7 307.8,238.3 313.1,249.8 318.5,247.3 	"/>
	<polygon style="fill:#C4C3B7;" points="303.5,241.3 303.5,241.3 306.8,238.9 306.4,239.1 	"/>
</g>
<g>
	<polygon style="fill:#7F807D;" points="306.8,238.9 307.8,238.3 307.7,238.2 	"/>
	<polygon style="fill:#7F807D;" points="303.2,241.5 303.5,241.3 303.5,241.3 	"/>
	<polygon style="fill:#7F807D;" points="307.8,238.3 306.8,238.9 303.5,241.3 303.2,241.5 303.5,241.3 301.8,242.3 301.8,245.5 
		305.4,253.3 305.5,253.3 305.3,246.6 305.6,247.3 307.4,252.4 313.1,249.8 	"/>
	<polygon style="fill:#7F807D;" points="324.4,244.6 326.6,243.6 323.8,237.5 319.6,232.2 315,234.5 315,234.5 312.3,235.7 
		318.5,247.3 322.3,245.6 319.6,239.4 	"/>
</g>
<circle style="fill:#514F4F;" cx="310.8" cy="210.6" r="4"/>
<circle style="fill:#C96363;" cx="310.8" cy="210.4" r="3.6"/>
<path style="fill:#D17878;" d="M311.1,207.7c0.6,0.6-2.4,3.6-3,3s-0.5-1.8,0.4-2.6S310.5,207.1,311.1,207.7z"/>
<g>
</g>
<g>
</g>
<g>
</g>
<g>
</g>
<g>
</g>
<g>
</g>
<g>
</g>
<g>
</g>
<g>
</g>
<g>
</g>
<g>
</g>
<g>
</g>
<g>
</g>
<g>
</g>
<g>
</g>
</svg>
